<svg xmlns="http://www.w3.org/2000/svg" width="680" height="250" viewBox="0 0 680 250" role="img">
  <style>
    text { font-family: Segoe UI, Ubuntu, Helvetica Neue, Arial, sans-serif; }
    .title { fill: #0969da; font-size: 22px; font-weight: 600; }
    .subtitle { fill: #57606a; font-size: 12px; }
    .axis { fill: #57606a; font-size: 11px; }
    .label { fill: #24292f; font-size: 12px; font-weight: 600; }
  </style>
  <rect x="1" y="1" width="678" height="248" rx="6" fill="#ffffff" stroke="#d0d7de"/>
  <text x="30" y="38" class="title">Commit Hours - Last 10 Years</text>
  <text x="30" y="58" class="subtitle">2016-06-28 to 2026-06-28 | 698 commits | 51 repos | public + private | Pacific/Auckland</text>
  <line x1="36" y1="184" x2="644" y2="184" stroke="#d0d7de"/>
  <g>
      <rect x="36.0" y="154" width="21.5" height="30" rx="3" fill="#40c463"><title>0:00 - 36 commits</title></rect>
      <rect x="61.5" y="178" width="21.5" height="6" rx="3" fill="#40c463"><title>1:00 - 7 commits</title></rect>
      <rect x="87.0" y="182" width="21.5" height="2" rx="3" fill="#40c463"><title>2:00 - 2 commits</title></rect>
      <rect x="112.5" y="184" width="21.5" height="0" rx="3" fill="#40c463"><title>3:00 - 0 commits</title></rect>
      <rect x="138.0" y="184" width="21.5" height="0" rx="3" fill="#40c463"><title>4:00 - 0 commits</title></rect>
      <rect x="163.5" y="184" width="21.5" height="0" rx="3" fill="#40c463"><title>5:00 - 0 commits</title></rect>
      <rect x="189.0" y="184" width="21.5" height="0" rx="3" fill="#40c463"><title>6:00 - 0 commits</title></rect>
      <rect x="214.5" y="182" width="21.5" height="2" rx="3" fill="#40c463"><title>7:00 - 1 commits</title></rect>
      <rect x="240.0" y="184" width="21.5" height="0" rx="3" fill="#40c463"><title>8:00 - 0 commits</title></rect>
      <rect x="265.5" y="176" width="21.5" height="8" rx="3" fill="#40c463"><title>9:00 - 9 commits</title></rect>
      <rect x="291.0" y="169" width="21.5" height="15" rx="3" fill="#40c463"><title>10:00 - 18 commits</title></rect>
      <rect x="316.5" y="154" width="21.5" height="30" rx="3" fill="#40c463"><title>11:00 - 36 commits</title></rect>
      <rect x="342.0" y="164" width="21.5" height="20" rx="3" fill="#40c463"><title>12:00 - 24 commits</title></rect>
      <rect x="367.5" y="171" width="21.5" height="13" rx="3" fill="#40c463"><title>13:00 - 16 commits</title></rect>
      <rect x="393.0" y="173" width="21.5" height="11" rx="3" fill="#40c463"><title>14:00 - 13 commits</title></rect>
      <rect x="418.5" y="164" width="21.5" height="20" rx="3" fill="#40c463"><title>15:00 - 24 commits</title></rect>
      <rect x="444.0" y="154" width="21.5" height="30" rx="3" fill="#40c463"><title>16:00 - 36 commits</title></rect>
      <rect x="469.5" y="164" width="21.5" height="20" rx="3" fill="#40c463"><title>17:00 - 24 commits</title></rect>
      <rect x="495.0" y="163" width="21.5" height="21" rx="3" fill="#40c463"><title>18:00 - 25 commits</title></rect>
      <rect x="520.5" y="157" width="21.5" height="27" rx="3" fill="#40c463"><title>19:00 - 32 commits</title></rect>
      <rect x="546.0" y="144" width="21.5" height="40" rx="3" fill="#40c463"><title>20:00 - 48 commits</title></rect>
      <rect x="571.5" y="95" width="21.5" height="89" rx="3" fill="#40c463"><title>21:00 - 107 commits</title></rect>
      <rect x="597.0" y="72" width="21.5" height="112" rx="3" fill="#0969da"><title>22:00 - 134 commits</title></rect>
      <rect x="622.5" y="95" width="21.5" height="89" rx="3" fill="#40c463"><title>23:00 - 106 commits</title></rect>
  </g>
  <g>
      <text x="46.8" y="206" text-anchor="middle" class="axis">0</text>
      <text x="199.8" y="206" text-anchor="middle" class="axis">6</text>
      <text x="352.8" y="206" text-anchor="middle" class="axis">12</text>
      <text x="505.8" y="206" text-anchor="middle" class="axis">18</text>
      <text x="633.3" y="206" text-anchor="middle" class="axis">23</text>
  </g>
  <text x="36" y="226" class="axis">hour of day</text>
  <text x="644" y="226" text-anchor="end" class="label">most active: 22:00 | 134 commits</text>
</svg>
